<svg xmlns="http://www.w3.org/2000/svg" viewBox="0 0 529.99 200"><defs><style>.a{fill:#aeb8c9;}</style></defs><path class="a" d="M193.09,87.56a22.53,22.53,0,0,0-6.89-4.68,22,22,0,0,0-8.57-1.54,25.3,25.3,0,0,0-10.32,2.12,24.33,24.33,0,0,0-8.2,5.86,28.1,28.1,0,0,0-5.42,8.93,31.08,31.08,0,0,0-2,11.21,32.83,32.83,0,0,0,1.91,11.35,26.57,26.57,0,0,0,5.42,8.93,24.89,24.89,0,0,0,8.34,5.86A26.46,26.46,0,0,0,178,137.72a21.12,21.12,0,0,0,9.15-1.76,19.63,19.63,0,0,0,6.89-5.63v5.56H208.9V60.4H193.16V87.56Zm-2.93,31.56a12.84,12.84,0,0,1-9.67,3.81,14,14,0,0,1-5.27-1,12.82,12.82,0,0,1-4.18-2.79,12.6,12.6,0,0,1-2.7-4.24,14.59,14.59,0,0,1,0-10.77,12.26,12.26,0,0,1,2.78-4.25,12.6,12.6,0,0,1,4.24-2.7,14.34,14.34,0,0,1,5.42-1,13.84,13.84,0,0,1,5.28,1,12.5,12.5,0,0,1,4.17,2.78,13.22,13.22,0,0,1,3.81,9.37A14.3,14.3,0,0,1,190.16,119.12ZM265,98.84a27,27,0,0,0-5.78-9.08,28.67,28.67,0,0,0-8.79-6.08,27.23,27.23,0,0,0-10.91-2.19,26.12,26.12,0,0,0-10.62,2.19,27.41,27.41,0,0,0-8.64,6,27.73,27.73,0,0,0-5.78,8.93,29.57,29.57,0,0,0,0,22,26.48,26.48,0,0,0,5.85,8.86,28.6,28.6,0,0,0,8.72,5.93,26.54,26.54,0,0,0,10.76,2.13,25.24,25.24,0,0,0,15.09-4.84,30.94,30.94,0,0,0,10-12.59H248.59a14.28,14.28,0,0,1-4.61,3.22,13,13,0,0,1-5.06.88,11.35,11.35,0,0,1-7.83-2.71,10.51,10.51,0,0,1-3.66-7.1H266.6A28.45,28.45,0,0,0,265,98.84ZM227.87,104a11.11,11.11,0,0,1,4-6.81,13.59,13.59,0,0,1,15.45.14,11.1,11.1,0,0,1,4,6.6h-23.5ZM138.46,62.52a27.78,27.78,0,0,0-38.08,10.25,24.31,24.31,0,0,0-1.17,2.34,28,28,0,1,0-39.32,36,27.51,27.51,0,0,0,11.93,3.66L59.67,135.89H77.83L98,100.82a24.49,24.49,0,0,0,1.17-2.35,27.82,27.82,0,0,0,23.36,16.26l-12.09,21.16h18.16l20.14-35.07A28.22,28.22,0,0,0,138.46,62.52ZM84.86,93.2a12.72,12.72,0,0,1-17.43,4.69,12.87,12.87,0,0,1-4.69-17.5A12.78,12.78,0,1,1,84.86,93.2Zm50.67,0a12.72,12.72,0,0,1-17.43,4.69,12.86,12.86,0,0,1-4.68-17.5,12.71,12.71,0,0,1,17.42-4.69A12.84,12.84,0,0,1,135.53,93.2Zm239.59,32.44c-5.27-.88-11.35.88-17.72-.15s-6.22-3.51-4.68-4.76c14.42,5.5,32.07-1.46,32.21-18.23,0-6.15-2.19-10-3.88-11.86,1.32-2.56,2.86-3.81,6.08-4.61L380.54,74.6a14,14,0,0,0-11.64,8c-3.52-1.46-10.69-1.61-16.48.44a22.83,22.83,0,0,0-7.54,4.32A18.38,18.38,0,0,0,340,94a20.13,20.13,0,0,0-1.75,8.49,22.21,22.21,0,0,0,3.59,12c-6.3,6.22-5.94,15.52.58,21.38a13.63,13.63,0,0,0-1.9,1.76c-5.86,6.44-3.08,15.38,3.66,20.06,8.57,6.15,23.8,6.52,33.1,2.35C393.58,153.32,394.16,128.86,375.12,125.64ZM361.65,93.42a8.64,8.64,0,1,1-8.64,8.64A8.66,8.66,0,0,1,361.65,93.42Zm10.91,53.24c-1.76,2.41-5.2,3.29-8.06,3.44-3.36.14-7.9-.59-10.17-3.37a5.28,5.28,0,0,1,1.31-8.13,6,6,0,0,1,2.71-.95h7.77c3.36,0,7.68.95,7.68,5.2A5.89,5.89,0,0,1,372.56,146.66Z"/><path class="a" d="M391,135.89v-.07h-.07ZM438.24,93.2a13.89,13.89,0,0,0-1.54-3.37,15.54,15.54,0,0,0-2.56-3,17.74,17.74,0,0,0-6.15-4,21.09,21.09,0,0,0-7.83-1.39,17.37,17.37,0,0,0-8.28,1.75,18,18,0,0,0-6,5.64V83.32H391v52.57h15.67V106.53c0-6.89,2.93-10.33,8.86-10.33,2.86,0,4.91.88,6.23,2.64s1.9,4.54,1.9,8.27v28.71h15.67V102.94c0-2.12-.07-4-.22-5.49A21.76,21.76,0,0,0,438.24,93.2Zm30.54,10.62c-7.25-1.91-9.81-3.3-9.81-6.15,0-2,1.9-3.52,4.54-3.52s4.68.95,4.83,4h15.38c-.74-10.25-8.79-16.48-20.07-16.48-10.54,0-20.28,6.67-20.28,17.06,0,6.15,3.51,11.35,16.69,15.38,7.84,2.49,9.6,4,9.6,6.88,0,2.42-2.71,4-5.5,4-3.14,0-5.49-1.54-5.93-4.83H442.64c1.09,10.69,9.52,17.35,21.3,17.35s21.31-6.88,21.31-17.86c.08-7.55-3.95-12.53-16.47-15.82Zm-144.91-45a9.45,9.45,0,1,0,9.37,9.44A9.41,9.41,0,0,0,323.87,58.86Zm-28.49,45c-7.25-1.91-9.81-3.3-9.81-6.15,0-2,1.9-3.52,4.54-3.52s4.68.95,4.83,4h15.38c-.73-10.25-8.79-16.48-20.07-16.48-10.54,0-20.28,6.74-20.28,17.06,0,6.15,3.52,11.35,16.7,15.38,7.83,2.42,9.59,4,9.59,6.88,0,2.42-2.71,4-5.49,4-3.08,0-5.49-1.54-5.93-4.83h-15.6c1.1,10.69,9.52,17.35,21.31,17.35s21.31-6.88,21.31-17.86c0-7.55-4-12.53-16.48-15.82ZM316,83.32H331.7v52.57H316Z"/></svg>