<svg viewBox="0 0 511.1 200" xmlns="http://www.w3.org/2000/svg"><path d="m439.65 111.19q7.11-5.46 10.11-11.47a23.14 23.14 0 0 0 2.73-13.1q-1.09-10.62-8.19-16.93a24.47 24.47 0 0 0 -17.21-6.56h-37.09v81.38h14.7v-33.32h17.48l21 33.32h17.48zm-1.36-24.57a10.62 10.62 0 0 1 -3.29 7.64q-2.73 2.46-7.92 2.46h-22.38v-19.11h22.39q6.29.27 8.74 3.27a9.26 9.26 0 0 1 2.46 5.74zm-161.11 27.58 19.12 30.31h17.47l-27-43.15zm31.41-51.07h-18.84l-38.75 51.34v-51.34h-15v74.28a8.17 8.17 0 0 0 1.37 4.36 7.76 7.76 0 0 0 4.64 2.74 7 7 0 0 0 3.28-.28 7.28 7.28 0 0 0 3.82-2.46zm32.76 47.79 29.22.27v-14.47h-29.22zm36.87-47.79h-58.17v74.28a9 9 0 0 0 2.19 5.18 7.61 7.61 0 0 0 5.19 1.92h50.79v-14.2h-43.15v-52.7h43.15zm-172 0v51.34l-38.5-51.34h-19.15v81.38h15v-62l44.51 59.25a7.37 7.37 0 0 0 3.55 2.46 8.34 8.34 0 0 0 3.55.28 7.76 7.76 0 0 0 4.64-2.74 8.17 8.17 0 0 0 1.37-4.36v-74.27zm-118 4.37-38.22 77.01h16.66l28.67-57.89 28.67 57.89h16.38l-37.68-76.73a8 8 0 0 0 -7.37-4.37 7.44 7.44 0 0 0 -7.1 4.09zm20.49 65.5h-9.83v-.28l1.91-20.72-.27-.27-21.3 27.85h10.1v.27l-1.91 21q0 .27.27 0l21.32-27.54v-.31z" fill="#aeb8c9"/></svg>
