<svg xmlns="http://www.w3.org/2000/svg" viewBox="0 0 698.55 200"><defs><style>.a{fill:#aeb8c9;}</style></defs><path class="a" d="M78.67,76.57c-6.77,0-12.77,2.69-16.22,6.39V49L50.32,50.28v81.83H62.45v-5.62a22.45,22.45,0,0,0,16.22,6.38c16.34,0,27.31-11,27.31-28.08S95.13,76.57,78.67,76.57Zm-.52,44.69c-9.57,0-15.83-7-15.83-16.47s6.26-16.6,15.83-16.6,16,7,16,16.47-6.38,16.47-16,16.6Z"/><polygon class="a" points="116.45 132.23 128.58 132.23 128.58 49 116.45 50.28 116.45 132.23"/><path class="a" d="M167.26,76.57c-16.34,0-28.08,12.13-28.08,28.09s11.87,28.08,28.08,28.08,28.09-12.12,28.09-28.08S183.47,76.57,167.26,76.57Zm0,44.69c-9.45,0-15.83-6.9-15.83-16.47s6.38-16.47,15.83-16.47,15.83,6.89,15.83,16.47-6.38,16.34-15.83,16.47Z"/><path class="a" d="M232.11,76.57c-16.34,0-28.21,12.13-28.21,28.09s11.87,28.08,28.21,28.08,28.09-12.12,28.09-28.08S248.45,76.57,232.11,76.57Zm0,44.69c-9.44,0-15.83-6.9-15.83-16.47s6.39-16.47,15.83-16.47,15.83,6.89,15.83,16.47-6.38,16.34-15.83,16.47Z"/><path class="a" d="M382.75,98.66c-5.87-2.17-12.13-2-12.13-6.89a4.17,4.17,0,0,1,4.09-4.34H375A5.52,5.52,0,0,1,379.81,91l7.54-7.4a15.34,15.34,0,0,0-21.2-4.73A15.8,15.8,0,0,0,359,91.77c0,8.93,5.87,13.14,11.48,14.68s10.73,1.91,10.73,8.17c0,4.34-2.81,6.76-7,6.76a7.06,7.06,0,0,1-7.28-7v-.25H355.43c0,10.46,7.41,18.89,18.77,18.89,11.1,0,19.15-7.4,19.15-18.51C393.47,105,388.37,100.7,382.75,98.66Z"/><path class="a" d="M429.09,121.13c-9.45,0-15.83-6.77-15.83-16.73s6.38-16.72,15.83-16.72a14.43,14.43,0,0,1,11.23,5l8.94-8a26.57,26.57,0,0,0-20.17-8.3c-16.21,0-28.08,12-28.08,28.08s12,28.09,28.08,28.09,28.09-12.13,28.09-28.09H445.05C445.05,114.23,438.41,121.13,429.09,121.13Z"/><path class="a" d="M653,104.4a28,28,0,1,0-27.71,28.22h.13c12.38,0,23.11-6.64,26.81-16.73H637.81c-2.29,3.58-6.76,5.24-12.38,5.24A15.5,15.5,0,0,1,610,108.62h42.77C652.88,107.21,653,105.81,653,104.4Zm-42.52-6.63a15.56,15.56,0,0,1,19.79-9.45,15.1,15.1,0,0,1,9.45,9.45Z"/><path class="a" d="M328.24,76.57c-7.92,0-12.38,3.2-16.6,7.54-2.93-4.85-7.66-7.54-14.42-7.54a17.5,17.5,0,0,0-14.3,6.9V77.21l-12.13,1.28h0v53.62h12.13V99.17c0-7.15,4.21-11.23,9.83-11.23,6.38,0,9.83,4.08,9.83,11.23v32.94h12.13V99.17c0-7.15,4.21-11.23,9.83-11.23,6.51,0,9.83,4.08,9.83,11.23v32.94h12.12v-36C346.24,82.57,339.47,76.57,328.24,76.57Z"/><path class="a" d="M507.47,78.23h-.25v4.34c-2.3-2.93-8.43-6.38-15.7-6.38-15.71,0-27.58,11.62-27.58,28.09s11.87,28.08,27.58,28.08c7.4,0,13.4-3.45,15.7-6.38v5.74h12.25V76.83l-12,1.4Zm.26,26.17c0,9.07-6.77,16.47-15.7,16.47a16.54,16.54,0,0,1,0-33.06C500.84,87.94,507.73,95.34,507.73,104.4Z"/><path class="a" d="M561.22,76.19A22.64,22.64,0,0,0,545,82.57V76.83l-12.13,1.28h0V163L545,161.72V126c3.44,3.7,9.31,6.38,16.21,6.38,16.34,0,27.32-11,27.32-28.08S577.69,76.19,561.22,76.19Zm-.51,44.68c-9.58,0-15.83-7-15.83-16.47s6.25-16.46,15.83-16.46,16,7,16,16.46-6.39,16.47-16,16.47Z"/></svg>