<svg xmlns="http://www.w3.org/2000/svg" viewBox="0 0 567.45 200"><defs><style>.a,.b,.c{fill:#aeb8c9;}.a{opacity:0.2;}.b{opacity:0.5;}</style></defs><path class="a" d="M189.61,99.48v33.85c-.1,11.58-1.43,16-3.83,20.51a26.27,26.27,0,0,1-10.88,10.87l-.63.33c-4.5,2.3-9.29,3.52-21.55,3.52H120.53V99.48Z"/><path class="b" d="M174.89,34.24a26.23,26.23,0,0,1,10.88,10.88l.33.62c2.3,4.51,3.51,9.3,3.51,21.56V99.48H120.53V30.39h32.18c12.83,0,17.49,1.34,22.18,3.85Z"/><path class="c" d="M120.53,30.39V168.56H86.68c-11.58-.11-16-1.44-20.51-3.84a26.33,26.33,0,0,1-10.88-10.87l-.32-.63c-2.3-4.5-3.52-9.29-3.52-21.56V67.3c0-12.83,1.34-17.49,3.84-22.18A26.29,26.29,0,0,1,66.17,34.24l.63-.33c4.5-2.3,9.29-3.52,21.55-3.52Z"/><path class="c" d="M287.05,82.41a12.5,12.5,0,0,0-5.65-4.29,19,19,0,0,0-14.54.19,18.32,18.32,0,0,0-6,4.25A19.06,19.06,0,0,0,257,88.91a22.28,22.28,0,0,0-1.36,7.89A24.32,24.32,0,0,0,257,105a18.26,18.26,0,0,0,3.75,6.38,17.05,17.05,0,0,0,5.84,4.15,19.18,19.18,0,0,0,7.67,1.47,17.1,17.1,0,0,0,7.81-1.74,15.45,15.45,0,0,0,5.5-4.61l7.81,5.49a25,25,0,0,1-8.91,7.08,28.15,28.15,0,0,1-12.29,2.52,31.88,31.88,0,0,1-11.81-2.13,26.67,26.67,0,0,1-15.27-15.09,30.58,30.58,0,0,1-2.17-11.72,29.56,29.56,0,0,1,2.28-11.87,26.38,26.38,0,0,1,6.27-9,27.75,27.75,0,0,1,9.4-5.73,33.55,33.55,0,0,1,11.77-2,32.22,32.22,0,0,1,5.48.51,27.87,27.87,0,0,1,5.49,1.54,26.89,26.89,0,0,1,5,2.6,16.05,16.05,0,0,1,4,3.71Zm14-16.56h9.29v58.5h-9.29Zm44,36.22a11.67,11.67,0,0,0-.49-3.41,7.73,7.73,0,0,0-1.59-2.86,7.94,7.94,0,0,0-2.75-2,9.57,9.57,0,0,0-3.91-.73,10.44,10.44,0,0,0-7.07,2.51,9.11,9.11,0,0,0-3.21,6.47Zm9.3,4.17v1.24a8.52,8.52,0,0,1-.09,1.24H326a9.32,9.32,0,0,0,1,3.68,9.44,9.44,0,0,0,2.37,2.86,11.65,11.65,0,0,0,3.32,1.89,11,11,0,0,0,3.87.7,12.56,12.56,0,0,0,5.88-1.27,11.07,11.07,0,0,0,3.94-3.54l6.19,5q-5.49,7.43-15.94,7.43a22.79,22.79,0,0,1-8-1.35,19.12,19.12,0,0,1-6.3-3.83,17.32,17.32,0,0,1-4.18-6.08A21,21,0,0,1,316.7,106a21.41,21.41,0,0,1,1.51-8.16,18.15,18.15,0,0,1,10.37-10.29,20.71,20.71,0,0,1,7.78-1.44,19.38,19.38,0,0,1,7.15,1.28,15.32,15.32,0,0,1,5.69,3.8A17.37,17.37,0,0,1,353,97.46a25.67,25.67,0,0,1,1.36,8.78Zm31.56,13.39h-.23a10.41,10.41,0,0,1-4.49,4.06,15.16,15.16,0,0,1-7,1.58,20,20,0,0,1-4.69-.58,13.83,13.83,0,0,1-4.49-1.93,11.26,11.26,0,0,1-3.4-3.56,10.25,10.25,0,0,1-1.36-5.45,9.22,9.22,0,0,1,2.36-6.65,15.36,15.36,0,0,1,6.08-3.8,33.93,33.93,0,0,1,8.24-1.74q4.53-.42,8.86-.42v-.93a5.76,5.76,0,0,0-2.51-5.15,10.67,10.67,0,0,0-6-1.66,13.49,13.49,0,0,0-5.64,1.23,15.1,15.1,0,0,0-4.49,3L362.27,92a21.1,21.1,0,0,1,7.31-4.42,25,25,0,0,1,8.4-1.47,20.58,20.58,0,0,1,8.16,1.4,12.7,12.7,0,0,1,7.67,8.67,22.11,22.11,0,0,1,.73,5.56v22.6h-8.67Zm-.15-12.23h-2.09c-1.49,0-3.07.07-4.72.19a19.93,19.93,0,0,0-4.57.86,9.73,9.73,0,0,0-3.47,1.85,4.12,4.12,0,0,0-1.4,3.29,4,4,0,0,0,.58,2.21,4.49,4.49,0,0,0,1.51,1.43,6.51,6.51,0,0,0,2.09.77,11.35,11.35,0,0,0,2.32.24c3.2,0,5.63-.86,7.27-2.56a9.6,9.6,0,0,0,2.48-7ZM402.6,87.2h8.91v6.2h.15A13.59,13.59,0,0,1,416,88.13a10.76,10.76,0,0,1,6.49-2c.36,0,.75,0,1.16,0a3.86,3.86,0,0,1,1.09.19v8.51a14,14,0,0,0-1.59-.31,11.28,11.28,0,0,0-1.28-.08,9.91,9.91,0,0,0-5.11,1.16,9.23,9.23,0,0,0-3,2.79,10.07,10.07,0,0,0-1.48,3.32,13.47,13.47,0,0,0-.38,2.71v19.89H402.6Zm37.61-21.35V91.93h.23A16.05,16.05,0,0,1,442.22,90a13.77,13.77,0,0,1,2.6-1.86,16.87,16.87,0,0,1,3.52-1.42,16.27,16.27,0,0,1,4.56-.59,17.44,17.44,0,0,1,13,5.65A18.81,18.81,0,0,1,469.61,98a21.9,21.9,0,0,1,1.32,7.66,23.22,23.22,0,0,1-1.28,7.71,19,19,0,0,1-3.63,6.25,17.39,17.39,0,0,1-13.36,5.85,16.32,16.32,0,0,1-7.38-1.7,12.65,12.65,0,0,1-5.39-5h-.15v5.57h-8.82V65.85Zm21.27,39.77a14.11,14.11,0,0,0-.66-4.29,11.88,11.88,0,0,0-2-3.83,9.84,9.84,0,0,0-8.05-3.8,9.5,9.5,0,0,0-4.57,1.09,11.67,11.67,0,0,0-3.44,2.79,11.9,11.9,0,0,0-2.16,3.86,13.21,13.21,0,0,0-.75,4.34,12.94,12.94,0,0,0,.75,4.3,12,12,0,0,0,2.16,3.82,11.39,11.39,0,0,0,3.44,2.75,10.6,10.6,0,0,0,9.28,0,10.47,10.47,0,0,0,3.34-2.79,11.83,11.83,0,0,0,2-3.86,14.57,14.57,0,0,0,.66-4.34ZM477.29,87.2h9.29v37.15h-9.29ZM476,74.6a5.34,5.34,0,0,1,1.66-3.91A5.72,5.72,0,0,1,481.86,69a6.16,6.16,0,0,1,4.29,1.58,5.43,5.43,0,0,1,0,8,6.12,6.12,0,0,1-4.29,1.59,5.73,5.73,0,0,1-4.22-1.67A5.32,5.32,0,0,1,476,74.6Zm16.56,20V87.2H499V76.45h9.13V87.2h9.28v7.43h-9.28v17.26a8.5,8.5,0,0,0,.88,4.1c.59,1.08,1.92,1.62,4,1.62a11.35,11.35,0,0,0,2-.19,7.74,7.74,0,0,0,1.94-.58l.31,7.27a15.27,15.27,0,0,1-2.95.74,20.64,20.64,0,0,1-3.25.27,14.91,14.91,0,0,1-6-1,9.33,9.33,0,0,1-3.68-2.86,11,11,0,0,1-1.86-4.18A24.78,24.78,0,0,1,499,112V94.63Zm0,0"/></svg>