<svg xmlns="http://www.w3.org/2000/svg" viewBox="0 0 561.4 200"><defs><style>.a,.b{fill:#aeb8c9;}.b{fill-rule:evenodd;}</style></defs><path class="a" d="M202.67,71.83c6.88,0,12,2.44,15.08,7.32,3.33,4.88,4.88,12,4.88,20.85a42.91,42.91,0,0,1-2.44,14.64,25.14,25.14,0,0,1-7.32,10.2,17.8,17.8,0,0,1-11.31,3.77c-5.55,0-10-2-13.09-5.76v24.62L174.28,149V73.38h12.64l.67,6.21a20.08,20.08,0,0,1,7.09-6,19.15,19.15,0,0,1,8-1.77Zm-5.32,45.92c6.87,0,10.42-5.77,10.42-17.53,0-6.43-.89-11.09-2.44-13.75a7.75,7.75,0,0,0-7.1-4,9.54,9.54,0,0,0-5.32,1.77,18.65,18.65,0,0,0-4.44,4.88v23.29c2.22,3.55,5.1,5.33,8.88,5.33Z"/><path class="a" d="M257.24,71.83a16.55,16.55,0,0,1,5.32.89l-2.44,13.75a21.41,21.41,0,0,0-4.66-.67,8.87,8.87,0,0,0-7.32,3.33c-1.77,2.22-3.1,5.55-4.21,10.2v27.51h-14.2V73.38h12.42l1.33,10.43A21,21,0,0,1,249,74.93a12.2,12.2,0,0,1,8.21-3.1Z"/><path class="a" d="M311.58,98.89c0,.67,0,2.44-.22,5.55H278.09c.44,4.88,1.77,8.2,4,10.2a12.67,12.67,0,0,0,8.87,3.11,20.82,20.82,0,0,0,6.44-1.11,33.45,33.45,0,0,0,6.65-3.55l6,8a31,31,0,0,1-20.19,7.32c-8.43,0-14.86-2.44-19.29-7.54s-6.66-11.76-6.66-20.41a34,34,0,0,1,2.88-14.64,22.66,22.66,0,0,1,8.43-10.2,23.29,23.29,0,0,1,13.09-3.77c7.54,0,13.53,2.44,17.75,7.1,3.32,4.88,5.54,11.31,5.54,20Zm-14.19-4c0-8.87-3.11-13.31-9.54-13.31A8,8,0,0,0,281,84.92c-1.55,2.21-2.66,5.76-3.1,10.64h19.52V94.9Z"/><path class="a" d="M337.53,71.83a30.21,30.21,0,0,1,19.3,6.43l-5.54,8.21A24.16,24.16,0,0,0,338,82.25a9.74,9.74,0,0,0-5.55,1.34,4,4,0,0,0-2,3.54,3.58,3.58,0,0,0,.88,2.67A8.62,8.62,0,0,0,334.65,92a59.53,59.53,0,0,0,7.1,2.44c5.54,1.56,9.76,3.55,12.64,6.22a14.54,14.54,0,0,1,4.22,10.64,15.17,15.17,0,0,1-3.11,9.32,18.81,18.81,0,0,1-8.21,6,32.65,32.65,0,0,1-11.75,2,35.2,35.2,0,0,1-12.2-2,27.45,27.45,0,0,1-9.54-5.77l7.1-7.76a22.6,22.6,0,0,0,14.19,5.32c2.67,0,4.88-.44,6.44-1.55a5,5,0,0,0,2.44-4.22,5.28,5.28,0,0,0-.89-3.32,7.82,7.82,0,0,0-3.33-2.22,60.16,60.16,0,0,0-7.54-2.44c-5.32-1.55-9.32-3.55-12-6.21s-3.77-6-3.77-10.21a13.48,13.48,0,0,1,2.66-8.2,19.36,19.36,0,0,1,7.32-5.77c3.11-1.78,6.88-2.44,11.09-2.44Z"/><path class="a" d="M385.89,71.83a30.23,30.23,0,0,1,19.3,6.43l-5.55,8.21a24.11,24.11,0,0,0-13.31-4.22,9.71,9.71,0,0,0-5.54,1.34,4,4,0,0,0-2,3.54,3.54,3.54,0,0,0,.89,2.67A8.54,8.54,0,0,0,383,92a59.53,59.53,0,0,0,7.1,2.44c5.54,1.56,9.76,3.55,12.64,6.22A14.53,14.53,0,0,1,407,111.31a15.23,15.23,0,0,1-3.1,9.32,18.87,18.87,0,0,1-8.21,6,32.7,32.7,0,0,1-11.76,2,35.24,35.24,0,0,1-12.2-2,27.41,27.41,0,0,1-9.53-5.77l7.09-7.76a22.65,22.65,0,0,0,14.2,5.32c2.66,0,4.88-.44,6.43-1.55a5,5,0,0,0,2.44-4.22,5.34,5.34,0,0,0-.88-3.32,7.89,7.89,0,0,0-3.33-2.22,60.72,60.72,0,0,0-7.54-2.44c-5.33-1.55-9.32-3.55-12-6.21s-3.77-6-3.77-10.21a13.48,13.48,0,0,1,2.66-8.2,19.2,19.2,0,0,1,7.32-5.77c3.11-1.78,6.88-2.44,11.09-2.44Z"/><path class="a" d="M421.38,111.09a9.11,9.11,0,0,1,6.21,2.44,8,8,0,0,1,2.44,6,8.16,8.16,0,0,1-2.44,6,8.4,8.4,0,0,1-6.21,2.66,7.62,7.62,0,0,1-6-2.66,8.06,8.06,0,0,1-2.44-6,8.33,8.33,0,0,1,8.43-8.43Z"/><path class="a" d="M452.66,126.84h-14.2V73.38h14.2v53.46Zm-7.32-81a8.32,8.32,0,0,1,6.21,2.44,8.56,8.56,0,0,1,0,12,9.12,9.12,0,0,1-12.42,0,8.56,8.56,0,0,1,0-12,8.68,8.68,0,0,1,6.21-2.44Z"/><path class="a" d="M487,71.83c8,0,14.2,2.44,18.63,7.54s6.66,12,6.66,20.85a34.77,34.77,0,0,1-3.11,14.86,24.14,24.14,0,0,1-8.87,10c-3.77,2.44-8.43,3.54-13.75,3.54-8,0-14.2-2.44-18.86-7.54-4.43-5.1-6.87-12-6.87-20.85A34.8,34.8,0,0,1,464,85.36a24.25,24.25,0,0,1,8.87-10A27.59,27.59,0,0,1,487,71.83Zm0,10.65c-3.55,0-6.43,1.33-8.21,4.21S476.17,94,476.17,100s.89,10.43,2.66,13.31a9.68,9.68,0,0,0,16,0q2.67-4.32,2.67-13.31T494.8,86.69c-1.55-2.88-4.21-4.21-7.76-4.21Z"/><path class="b" d="M104.4,39a61,61,0,1,0,61,61A61,61,0,0,0,104.4,39ZM83.77,128.17A27.42,27.42,0,0,1,70,124.84a22.28,22.28,0,0,1-8.87-9.76A34.07,34.07,0,0,1,58,100.22a34.81,34.81,0,0,1,3.11-14.86A23.49,23.49,0,0,1,70,75.16a25.76,25.76,0,0,1,13.31-3.33,25.3,25.3,0,0,1,9.54,1.55,28.82,28.82,0,0,1,8.21,4.88l-6.21,8.43a24.09,24.09,0,0,0-5.11-2.88,14,14,0,0,0-5.32-.89c-7.54,0-11.31,5.77-11.31,17.52,0,6,.88,10.21,2.88,12.65,2,2.66,4.66,3.77,8.43,3.77a12.93,12.93,0,0,0,5.1-.89,45.07,45.07,0,0,0,5.55-2.88L101.3,122A26.52,26.52,0,0,1,83.77,128.17Zm53-1.33c-2.22,6.88-5.55,12-10.2,15.75S115.72,148.36,108,149l-1.55-10.2c5.1-.67,8.87-1.78,11.31-3.55a22.51,22.51,0,0,0,2.66-2.88L102,73.38h15.31l10.65,44.14,11.31-44.14h14.86Z"/></svg>