<svg xmlns="http://www.w3.org/2000/svg" viewBox="0 0 791.72 200"><defs><style>.a{fill:#aeb8c9;}</style></defs><path class="a" d="M51.91,40V160h120V40Zm39,86h-12V74h12Zm54,0h-12V106h-18v20h-12V74h12V94h18V74h12Z"/><path class="a" d="M243.57,125.11V75H232.29v50.1Z"/><path class="a" d="M255.42,125.07h10.71V107.32c0-2.95-.16-6-.48-9.22s-.65-6.15-.89-8.9h.32L270,100.12l13.1,25h11.6V75H284V92.72c0,3,.16,6.11.48,9.38s.65,6.23.89,8.9H285l-4.94-11.08L267,75h-11.6v50.06Z"/><path class="a" d="M321.29,125.11a31.32,31.32,0,0,0,10-1.54,19.86,19.86,0,0,0,7.72-4.65,20.88,20.88,0,0,0,5-7.88,32.33,32.33,0,0,0,1.78-11.2A31.7,31.7,0,0,0,344,88.68,20,20,0,0,0,339,81,21,21,0,0,0,331,76.47,34.5,34.5,0,0,0,320.64,75H306.49v50.1Zm-3.48-41H320a20,20,0,0,1,5.83.77,10.32,10.32,0,0,1,4.44,2.59,12.2,12.2,0,0,1,2.87,4.85,23.38,23.38,0,0,1,1.06,7.48,24,24,0,0,1-1.06,7.6,12.71,12.71,0,0,1-2.87,5,10.55,10.55,0,0,1-4.44,2.71,18.65,18.65,0,0,1-5.83.85h-2.14Z"/><path class="a" d="M366.58,125.11V75H355.29v50.1Z"/><path class="a" d="M378.42,125.15h32.11v-9.54H389.7V104.08h17.07V94.62H389.7V84.55h20.06V75H378.42v50.14Z"/><path class="a" d="M447.16,125.11v-20.9h17.31v20.9h11.36V75H464.47V94.3H447.16V75H435.88v50.1Z"/><path class="a" d="M492.81,125.11l3.08-11.93h15.28l3.08,11.93h12L510.53,75H496.94l-15.65,50.1Zm8.62-33.32c.64-2.79,1.29-5.5,1.9-8.17h.32c.65,2.59,1.34,5.3,2,8.13s1.34,5.5,2.06,8l1.18,4.61H498.19l1.22-4.61C500.13,97.25,500.82,94.58,501.43,91.79Z"/><path class="a" d="M568,118.6l-6-7.08a16.22,16.22,0,0,1-4.25,3.36,11.14,11.14,0,0,1-5.5,1.33A10.58,10.58,0,0,1,543.4,112q-3.33-4.25-3.32-12a22,22,0,0,1,1-6.75,16.34,16.34,0,0,1,2.63-5.06A11.51,11.51,0,0,1,547.6,85a10.54,10.54,0,0,1,4.82-1.13A10.28,10.28,0,0,1,557.23,85a19.19,19.19,0,0,1,4,2.87l6-7.32a24,24,0,0,0-6.39-4.57,19.16,19.16,0,0,0-8.7-1.94,23.82,23.82,0,0,0-9.05,1.78,21.3,21.3,0,0,0-7.52,5.13,25.23,25.23,0,0,0-5.14,8.25,30.08,30.08,0,0,0-1.94,11.12,31.28,31.28,0,0,0,1.86,11.12,22.09,22.09,0,0,0,5,8,20.32,20.32,0,0,0,7.4,4.89,24.5,24.5,0,0,0,9,1.66A20.1,20.1,0,0,0,568,118.6Z"/><path class="a" d="M587,125.11V111.69l5.82-7.69L605,125.11h12.38L599.44,95l15.17-20H602.15l-14.92,20.5h-.32V75H575.63v50.1Z"/><path class="a" d="M622.81,125.15h32.11v-9.54H634.1V104.08h17.06V94.62H634.1V84.55h20V75H622.81v50.14Z"/><path class="a" d="M676.19,125.11v-18h6.23l9.62,18H704.7l-11.37-20.06a14.54,14.54,0,0,0,6.51-5.33,15.87,15.87,0,0,0,2.43-9.1,16.37,16.37,0,0,0-1.54-7.44,13,13,0,0,0-4.16-4.81,16.78,16.78,0,0,0-6.11-2.59A33.43,33.43,0,0,0,683,75H664.91v50.1Zm0-41.12H682a13.1,13.1,0,0,1,6.8,1.45c1.57,1,2.34,2.67,2.34,5.14a6.69,6.69,0,0,1-2.34,5.58c-1.58,1.29-3.85,1.9-6.8,1.9h-5.82Z"/><path class="a" d="M734.25,124.71a18.58,18.58,0,0,0,6-3.4,14.49,14.49,0,0,0,3.68-4.93,14.15,14.15,0,0,0,1.25-5.95,13,13,0,0,0-2.67-8.53,17.63,17.63,0,0,0-7.28-5.05l-6.46-2.63c-1.06-.45-2.07-.85-3-1.26a12.69,12.69,0,0,1-2.42-1.21,5.66,5.66,0,0,1-1.62-1.45,3.4,3.4,0,0,1-.57-2A3.9,3.9,0,0,1,722.85,85a8.32,8.32,0,0,1,4.65-1.17,14,14,0,0,1,5.46,1,20.55,20.55,0,0,1,4.93,3l5.83-7.08a21.62,21.62,0,0,0-7.48-4.93,23.46,23.46,0,0,0-8.66-1.7,21.64,21.64,0,0,0-7.19,1.17,17.15,17.15,0,0,0-5.67,3.2A15,15,0,0,0,711,83.26a13.57,13.57,0,0,0,1.82,14.6,17,17,0,0,0,3.24,2.87,20.84,20.84,0,0,0,3.72,2l6.51,2.75c1,.44,2.06.85,2.95,1.25a12.45,12.45,0,0,1,2.31,1.22,4.65,4.65,0,0,1,1.45,1.49,3.83,3.83,0,0,1,.49,2,4.19,4.19,0,0,1-1.74,3.52,8.81,8.81,0,0,1-5.26,1.29,15.79,15.79,0,0,1-6.43-1.45,24.1,24.1,0,0,1-5.94-3.76l-6.47,7.76a25.87,25.87,0,0,0,8.73,5.42,27.83,27.83,0,0,0,9.79,1.82A23.11,23.11,0,0,0,734.25,124.71Z"/></svg>
