<svg viewBox="0 0 631.63 200" xmlns="http://www.w3.org/2000/svg"><g fill="#aeb8c9"><path d="m214.68 109.89q0 23.07-16 23.08a17.91 17.91 0 0 1 -4.85-.67v-4.3a15.48 15.48 0 0 0 4.94.89q6.14 0 8.85-4.64t2.71-14.48v-41.67h4.35z"/><path d="m227.93 129.59v-5a25.55 25.55 0 0 0 13.87 4.36q7.47 0 11.34-3.09a10.47 10.47 0 0 0 3.87-8.64 11.26 11.26 0 0 0 -2.61-7.81q-2.6-2.91-11.27-7.94-9.69-5.67-12.27-9.47a15.27 15.27 0 0 1 -2.58-8.78 14.89 14.89 0 0 1 5.25-11.48q5.25-4.71 14-4.71a35.62 35.62 0 0 1 11.38 1.91v4.63a28.64 28.64 0 0 0 -11.91-2.57q-6.5 0-10.3 3.3a10.58 10.58 0 0 0 -3.8 8.36 11.24 11.24 0 0 0 2.6 7.78q2.61 2.88 11.23 7.86 8.92 5.08 11.89 9a14.69 14.69 0 0 1 3 9 15.44 15.44 0 0 1 -5.09 12q-5.1 4.62-14.39 4.62a33.21 33.21 0 0 1 -7.58-1 24.38 24.38 0 0 1 -6.63-2.33z"/><path d="m274.16 131.86v-63.76h22.59q34 0 34 31.08 0 14.89-9.27 23.79t-24.7 8.89zm14.37-52.06v40.4h7.11q9.35 0 14.65-5.59t5.31-15.25q0-9.12-5.27-14.34t-14.79-5.22z"/><path d="m380.69 131.86h-38.24v-63.76h36.77v11.7h-22.41v14.2h20.86v11.64h-20.86v14.56h23.88z"/><path d="m430.82 131.86h-38v-63.76h14.37v52.1h23.61z"/><path d="m454.23 68.1v63.76h-14.37v-63.76z"/><path d="m522.76 68.1-22 63.76h-16.23l-21.7-63.76h15.47l13.3 44.37a32 32 0 0 1 1.29 6.36h.26a36.41 36.41 0 0 1 1.38-6.54l13.21-44.19z"/><path d="m584.85 131.86h-16.5l-9.91-16.41c-.74-1.24-1.46-2.36-2.13-3.34a20.52 20.52 0 0 0 -2.07-2.51 8.35 8.35 0 0 0 -2.18-1.6 5.52 5.52 0 0 0 -2.47-.55h-3.86v24.41h-14.37v-63.76h22.76q23.22 0 23.21 17.34a18 18 0 0 1 -1 6.16 17 17 0 0 1 -2.89 5.09 18.38 18.38 0 0 1 -4.51 3.91 23.49 23.49 0 0 1 -5.9 2.58v.18a9.19 9.19 0 0 1 2.77 1.44 19.79 19.79 0 0 1 2.57 2.34 31.93 31.93 0 0 1 2.38 2.86c.75 1 1.44 2 2.07 3zm-39.12-53v17.74h6.27a10.28 10.28 0 0 0 7.42-2.67 8.89 8.89 0 0 0 2.85-6.72c0-5.56-3.34-8.36-10-8.36h-6.49z"/><path d="m106.27 36.01-59.1 21.28 8.4 78.7 50.7 28" opacity=".2"/><path d="m106.27 163.99 50.95-28.28 9.54-78.7-60.49-21" opacity=".5"/><path d="m95.54 131.06a36 36 0 0 1 -15.13-9.33c-.5-.53-1-1-1.46-1.61a35.94 35.94 0 0 1 -7.14-13 31.67 31.67 0 0 0 3.06 2.49 1 1 0 0 1 0 .1.34.34 0 0 0 0-.1 33.61 33.61 0 0 0 4.87 2.83l1.64.71c.68.27 1.39.52 2.09.75h.13l.4.1a6.55 6.55 0 0 0 5.34 5.78 23.68 23.68 0 0 0 6.2 11.28z"/><path d="m97.77 80a6.6 6.6 0 0 0 .93 3.39 55.75 55.75 0 0 0 -9.52 21.27c-.16.8-.29 1.6-.4 2.38a6.53 6.53 0 0 0 -3.9 2.92.32.32 0 0 1 -.14 0l-.23-.09c-.55-.17-1.08-.37-1.6-.58-.79-.31-1.55-.67-2.3-1a27.16 27.16 0 0 1 -6.84-5c-.42-.43-.82-.84-1.19-1.28l-.16-.18-.44-.53a1.81 1.81 0 0 1 -.18-.23l-.15-.17s-.05-.06-.06-.09a2.26 2.26 0 0 1 -.2-.26l-.09-.11-.14-.19c-.21-.28-.41-.57-.6-.86a.65.65 0 0 1 -.1-.15 1 1 0 0 1 -.08-.11c0-.78-.07-1.56-.07-2.37a35.89 35.89 0 0 1 5.8-19.6c.44-.68.91-1.34 1.39-2s.94-1.22 1.44-1.79a35.86 35.86 0 0 1 16.49-10.96c.1.69.22 1.4.36 2.12a50.65 50.65 0 0 0 3.65 11.13 6.47 6.47 0 0 0 -1.67 4.34z"/><path d="m93.94 113.36a3.44 3.44 0 0 1 -.82 2.23 2.65 2.65 0 0 1 -.37.38 3.43 3.43 0 0 1 -4.1.35 3.42 3.42 0 0 1 -1.65-3 3.43 3.43 0 0 1 1.1-2.53l.34-.28a3.48 3.48 0 0 1 2-.65 3.39 3.39 0 0 1 2.1.71 3.27 3.27 0 0 1 .82.88 3.32 3.32 0 0 1 .58 1.91z"/><path d="m107.77 80a3.42 3.42 0 0 1 -.36 1.54 3.48 3.48 0 0 1 -3.11 1.93h-.49a.16.16 0 0 0 -.1 0 3.47 3.47 0 0 1 -2.84-2.91 2.89 2.89 0 0 1 0-.52 3.59 3.59 0 0 1 .19-1.14 3.47 3.47 0 0 1 3.28-2.32h.15a3.48 3.48 0 0 1 3.13 2.42 3.3 3.3 0 0 1 .15 1z"/><path d="m142.24 96.71a36 36 0 0 1 -1.42 10 48.49 48.49 0 0 1 -9.22-3.51 6.14 6.14 0 0 0 .13-1.29 6.45 6.45 0 0 0 -.48-2.45l.37-.36a57.77 57.77 0 0 0 9.23-12.34 36.15 36.15 0 0 1 1.39 9.95z"/><path d="m138.89 81.55c-.24.53-.5 1.06-.77 1.6a52.92 52.92 0 0 1 -9.45 13.08l-.1.11a6.53 6.53 0 0 0 -7.23.32 63.39 63.39 0 0 1 -5.73-5.1 64.53 64.53 0 0 1 -6.32-7.33 6.52 6.52 0 0 0 .64-7.54 61.24 61.24 0 0 1 15.07-10.69 36.17 36.17 0 0 1 13.89 15.55z"/><path d="m128.66 101.93a3.45 3.45 0 0 1 -2.14 3.21 3.29 3.29 0 0 1 -1.33.27 3.36 3.36 0 0 1 -.71-.08 3.48 3.48 0 0 1 -2.75-3.09.59.59 0 0 1 .11-.08l-.12-.09v-.14a3.49 3.49 0 0 1 2.28-3.27 3.67 3.67 0 0 1 1.16-.2 3.37 3.37 0 0 1 1 .15 3.48 3.48 0 0 1 2.46 3c.04.12.04.23.04.32z"/><path d="m129.56 106.79a6.47 6.47 0 0 1 -4.37 1.69 6.55 6.55 0 0 1 -3.65-1.11l-.44.27a52.34 52.34 0 0 1 -14.84 6.52v18.53a36 36 0 0 0 33.18-22.06 54.29 54.29 0 0 1 -9.88-3.84z"/><path d="m106.26 114.16a44.59 44.59 0 0 1 -9.15 1.41h-.5a6.6 6.6 0 0 1 -3.22 3.61 19.15 19.15 0 0 0 12.33 13.47h.54z"/><path d="m118.65 101.93a6.4 6.4 0 0 1 .29-1.91 66 66 0 0 1 -6.24-5.54 69.92 69.92 0 0 1 -6.44-7.43v22.84a49.07 49.07 0 0 0 12.64-5.72l.12-.08a6.4 6.4 0 0 1 -.37-2.16z"/><path d="m106.26 87.05c-.17-.22-.34-.43-.5-.66a6.38 6.38 0 0 1 -1.45.16 6.56 6.56 0 0 1 -2.45-.47 51.36 51.36 0 0 0 -8.64 19.39c-.12.62-.23 1.23-.32 1.82a6.61 6.61 0 0 1 3.83 4.2.5.5 0 0 1 .17 0 41.3 41.3 0 0 0 9.36-1.58z"/><path d="m106.26 60.74v13a3.78 3.78 0 0 1 .56.21 66.65 66.65 0 0 1 13.72-10.3 35.76 35.76 0 0 0 -14.28-2.91z"/><path d="m106.26 60.74a34.54 34.54 0 0 0 -6.8.65c.09.75.23 1.55.38 2.32a45.92 45.92 0 0 0 3.16 9.89 7.51 7.51 0 0 1 1.28-.12 6.31 6.31 0 0 1 2 .3z"/></g></svg>
