<svg xmlns="http://www.w3.org/2000/svg" viewBox="0 0 354.44 200"><defs><style>.a,.b{fill:#aeb8c9;}.a{opacity:0.7;}</style></defs><path class="a" d="M179.61,123.12a20,20,0,0,0,20-19.93V68.07a9,9,0,1,1,18,0v34.84a38,38,0,0,1-37.9,38h-.11a8.91,8.91,0,0,1,0-17.82Z"/><path class="b" d="M179.59,123.12a19.94,19.94,0,0,1-20-19.93V68.07a9,9,0,0,0-18,0v34.84a38,38,0,0,0,37.9,38h.11a8.91,8.91,0,0,0,0-17.82Z"/><path class="b" d="M208.58,59.06a9,9,0,1,0,9,9A9,9,0,0,0,208.58,59.06Z"/><path class="a" d="M228.11,74.37a9,9,0,1,1,12.75-12.73l64.75,64a9,9,0,1,1-12.75,12.73Z"/><path class="b" d="M305.61,74.37a9,9,0,1,0-12.75-12.73l-64.75,64a9,9,0,1,0,12.75,12.73Z"/><path class="b" d="M299.23,123a9,9,0,1,0,9,9A9,9,0,0,0,299.23,123Z"/><path class="a" d="M86.21,106.61A9,9,0,1,0,99,93.87l-32.12-32A9,9,0,1,0,54.08,74.57Z"/><path class="a" d="M133.71,131.8a9,9,0,0,1-18,0V68.2a9,9,0,0,1,18,0Z"/><path class="b" d="M131.09,61.83a9,9,0,0,0-12.75,0l-32.12,32A9,9,0,0,0,99,106.61l32.13-32A9,9,0,0,0,131.09,61.83Z"/><path class="b" d="M60.39,59.2a9,9,0,0,0-9,9v63.6a9,9,0,0,0,18,0V68.2A9,9,0,0,0,60.39,59.2Z"/><ellipse class="b" cx="124.7" cy="131.8" rx="9.01" ry="9"/></svg>