<svg width="255" height="69" fill="none" xmlns="http://www.w3.org/2000/svg">
    <defs>
        <style>.a{fill:#aeb8c9}.b{fill:#949eac}</style>
    </defs>
    <g clip-path="url(#a)">
        <path d="M90.368 48.713H84.52V25.045h-7.654V20.27h21.11v4.776h-7.608v23.668ZM106.121 23.377c0 1.669-1.286 2.94-2.985 2.94-1.745 0-3.031-1.287-3.031-2.986 0-1.745 1.286-3.031 3.031-3.031 1.76.015 2.985 1.286 2.985 3.077Zm-.291 25.336h-5.419V28.965h5.419v19.748ZM114.97 28.796v2.48c1.24-2.174 2.893-3.153 5.419-3.153 2.557 0 4.44 1.148 5.373 3.276 1.317-2.266 3.154-3.276 5.971-3.276 2.005 0 3.674.642 4.776 1.837 1.194 1.316 1.577 2.679 1.577 5.664v12.905h-5.419V36.634c0-2.679-.98-3.965-3.031-3.965-2.006 0-3.154 1.455-3.154 3.965V48.53h-5.419V36.803c0-2.725-1.026-4.134-2.986-4.134-2.051 0-3.107 1.409-3.107 4.134v11.726h-5.42V28.781h5.42v.015ZM199.903 46.6c-2.265 2.052-4.608 2.94-7.593 2.94-6.016 0-10.441-4.44-10.441-10.44 0-6.232 4.348-10.656 10.487-10.656 2.939 0 5.374 1.026 7.884 3.276l-3.628 3.276c-1.194-1.194-2.48-1.745-4.057-1.745-2.985 0-5.205 2.434-5.205 5.664 0 3.368 2.266 5.802 5.419 5.802 1.409 0 2.435-.428 3.843-1.668l3.291 3.551ZM216.743 29.118h5.419v19.748h-5.419v-2.725c-1.837 2.342-3.965 3.414-6.858 3.414-5.542 0-9.507-4.302-9.507-10.318 0-6.23 4.179-10.793 9.935-10.793 2.695 0 4.516.934 6.445 3.2v-2.526h-.015Zm-10.578 10.027c0 3.46 2.265 6.062 5.205 6.062 3.031 0 5.465-2.816 5.465-6.23 0-3.49-2.22-5.97-5.419-5.97-3.077-.016-5.251 2.51-5.251 6.138ZM225.76 49.05V20.606h5.419V49.05h-5.419ZM161.279 40.508h-16.273c.229 1.438.857 2.571 1.883 3.429 1.025.842 2.327 1.27 3.903 1.27 1.899 0 3.521-.658 4.884-1.99l4.271 2.006c-1.072 1.515-2.342 2.633-3.827 3.352-1.485.72-3.246 1.087-5.282 1.087-3.169 0-5.74-.995-7.746-3-1.99-2.006-2.985-4.501-2.985-7.502 0-3.077.995-5.633 2.985-7.67 1.99-2.035 4.47-3.046 7.471-3.046 3.184 0 5.771 1.01 7.761 3.047 1.99 2.036 2.986 4.73 2.986 8.067l-.031.95Zm-5.067-3.996c-.337-1.133-.995-2.036-1.975-2.74-.98-.705-2.128-1.057-3.429-1.057-1.409 0-2.649.398-3.72 1.194-.674.49-1.286 1.363-1.853 2.618h10.977v-.015ZM254.969 40.691h-16.273c.23 1.44.857 2.572 1.883 3.43 1.026.841 2.327 1.27 3.904 1.27 1.898 0 3.521-.658 4.883-1.99l4.271 2.005c-1.071 1.516-2.342 2.633-3.827 3.353-1.485.72-3.245 1.087-5.297 1.087-3.169 0-5.74-.995-7.746-3-1.99-2.006-2.985-4.502-2.985-7.502 0-3.077.995-5.634 2.985-7.67 1.99-2.036 4.47-3.046 7.471-3.046 3.184 0 5.771 1.01 7.761 3.046 1.991 2.036 2.986 4.73 2.986 8.068l-.016.95Zm-5.052-3.995c-.336-1.133-.995-2.037-1.974-2.74-.98-.705-2.128-1.057-3.43-1.057-1.408 0-2.648.398-3.72 1.194-.673.49-1.286 1.362-1.852 2.618h10.976v-.015ZM164.923 42.727c.229.169 1.684 1.24 4.378 2.128 1.148.383 2.847.46 4.149.2.627-.123 1.316-.292 1.821-.69.23-.183.414-.413.49-.689.123-.459-.061-.964-.382-1.3-.444-.475-1.087-.705-1.7-.873a46.943 46.943 0 0 0-3.781-.888c-1.317-.26-2.541-.52-3.659-1.103-1.439-.75-2.51-1.592-3-3.23-.444-1.5-.138-3.414.842-4.822 1.791-2.572 4.96-3.154 6.69-3.26 5.45-.368 9.399 3.03 9.568 3.168l-3.016 3.46.015.015c-.031-.015-2.725-2.403-6.154-2.174-2.006.138-2.771.842-3.016 1.149-.214.275-.337.581-.321.857.046.536.336 1.071 2.878 1.638 1.561.352 2.541.566 4.24 1.087 3.108.964 5.909 2.985 5.45 6.674-.505 4.088-4.837 5.604-8.435 5.604-1.317 0-2.878-.2-4.103-.598-3.766-1.224-5.526-2.51-5.802-2.724l2.848-3.629Z" class="a" />
        <path d="M58.488 58.486c13.38-13.38 13.38-35.073 0-48.453-13.38-13.38-35.073-13.38-48.453 0-13.38 13.38-13.38 35.073 0 48.453 13.38 13.38 35.073 13.38 48.453 0Z" fill="#f2f5f8" />
        <path d="M34.261 57.163c12.682 0 22.964-10.28 22.964-22.963 0-12.682-10.282-22.963-22.964-22.963-12.682 0-22.963 10.28-22.963 22.963 0 12.682 10.28 22.963 22.963 22.963Z" fill="#C0C4CC" />
        <path d="M28.765 28.046c-.643-1.562-1.684-2.787-2.878-3.567a12.744 12.744 0 0 0-3.398 4.623l-1.378-.367a14.403 14.403 0 0 1 3.414-4.93c-.995-.306-2.021-.306-2.97.077a16.035 16.035 0 0 0-2.878 5.296c.03.904.23 1.838.612 2.756 1.378 3.353 4.623 5.205 7.241 4.134 2.618-1.057 3.628-4.654 2.235-8.022Zm-7.807 5.894-.75-1.5 1.485-1.532 4.898.781.75 2.25-2.25 1.5-4.133-1.5Zm23.1-10.043a14.364 14.364 0 0 1 3.369 4.914l-1.378.367a12.93 12.93 0 0 0-3.322-4.592c-1.148.765-2.143 1.975-2.755 3.475-1.378 3.353-.368 6.95 2.25 8.037 2.618 1.072 5.863-.78 7.241-4.133.29-.72.49-1.455.566-2.174-.627-2.22-1.699-4.24-3.138-5.97-.918-.307-1.898-.245-2.832.076Zm3.706 10.043-4.134 1.5-2.25-1.5.75-2.25 4.884-.782 1.484 1.531-.734 1.5Zm-6.859 21.616a7.8 7.8 0 0 1-.581 2.939 24.97 24.97 0 0 1-6.093.75c-2.036 0-3.996-.245-5.879-.704a7.646 7.646 0 0 1-.612-2.985c0-1.93.72-3.69 1.867-4.976l3.598 1.424a2.681 2.681 0 0 1-2.572 1.944c-.076 0-.168-.015-.245-.015l-1.194 1.669c.444.153.934.23 1.44.23a4.538 4.538 0 0 0 3.627-1.807 4.56 4.56 0 0 0 3.628 1.806 4.59 4.59 0 0 0 1.593-.29l-1.164-1.639c-.138.031-.275.031-.413.031a2.678 2.678 0 0 1-2.587-1.99l3.72-1.424a7.685 7.685 0 0 1 1.867 5.037Z" fill="#fff" />
        <path d="M49.938 9.415a29.803 29.803 0 0 1 7.041 6.17l-2.816 4.025a24.863 24.863 0 0 0-8.971-7.486l4.745-2.71ZM37.859 53.948c.137 0 .275-.015.413-.03l1.164 1.638c-.49.183-1.026.29-1.577.29-1.485 0-2.787-.719-3.629-1.806a4.516 4.516 0 0 1-3.628 1.807c-.505 0-.98-.077-1.439-.23l1.194-1.669c.077.016.169.016.245.016 1.225 0 2.25-.827 2.572-1.945l-5.848-2.311 1.393-3.49 5.511 2.22 5.496-2.22 1.409 3.505-5.894 2.25c.337 1.133 1.378 1.975 2.618 1.975ZM22.504 29.117l-1.378-.367c1.485-3.552 4.348-6.384 7.915-7.793-.092.521-.138 1.072-.184 1.623a12.836 12.836 0 0 0-6.353 6.537ZM27.342 33.94l-2.25 1.5-4.119-1.5-.75-1.5 1.47-1.532 4.898.781.75 2.25ZM33.526 35.608c-.03-.03-.06-.046-.076-.061-.123-.092-.26-.168-.383-.276-.52-.245-.964-.78-1.225-1.485-.122-.275-.214-.566-.23-.826a4.222 4.222 0 0 1-.076-.781c0-.03.015-.061.015-.092h-.015l1.317-16.15h1.439l1.53 16.028c.016.015.016.015.031.015l14.452 11.206-.827 1.164-15.952-8.742Z" class="b" />
        <path d="m47.764 33.94-4.134 1.5-2.25-1.5.765-2.25 4.884-.782 1.485 1.531-.75 1.5ZM48.345 36.266c-.107.781-.29 1.547-.52 2.281-.368-.336-.766-.658-1.179-.995.107-.428.214-.842.276-1.286h1.423ZM46.064 29.163a12.877 12.877 0 0 0-7.67-7.103 15.07 15.07 0 0 0-.26-1.562 14.244 14.244 0 0 1 9.293 8.298l-1.363.367Z" class="b" />
        <path d="M49.493 40.278a16.471 16.471 0 0 0 1.149-6.047c0-7.976-5.695-14.605-13.212-16.075a8.956 8.956 0 0 0-1.194-2.082c9.17.98 16.304 8.726 16.304 18.156 0 2.833-.643 5.512-1.806 7.9-.276-.567-.69-1.194-1.24-1.852ZM34.261 11.237c3.521 0 6.859.796 9.844 2.204l-1.408 2.465a20.173 20.173 0 0 0-8.436-1.853c-3.016 0-5.878.659-8.45 1.853l-1.409-2.465a23.311 23.311 0 0 1 9.86-2.204ZM18.845 9.2l4.486 2.91a24.897 24.897 0 0 0-8.65 7.01l-3.169-3.566A29.18 29.18 0 0 1 18.845 9.2ZM22.642 61.603C14.298 58.036 7.93 50.764 5.618 41.839l3.873-5.052c.812 8.527 5.925 15.784 13.136 19.596a31.492 31.492 0 0 0-.123 2.71c.03.933.061 1.775.138 2.51Z" class="b" />
        <path d="M22.902 54.163c-6.935-3.95-11.589-11.405-11.589-19.948 0-5.174 1.715-9.966 4.608-13.809l1.914 2.174a20.064 20.064 0 0 0-3.69 11.62c0 7.164 3.736 13.441 9.354 17.023-.26.95-.444 1.93-.597 2.94Z" class="b" />
        <path d="M24.035 49.371a18.219 18.219 0 0 1-8.037-15.125c0-8.895 6.353-16.304 14.773-17.927a9.276 9.276 0 0 0-1.118 2.205c-6.797 1.99-11.772 8.266-11.772 15.706 0 5.496 2.71 10.35 6.858 13.32-.245.596-.49 1.193-.704 1.821Z" class="b" />
        <path d="M20.177 36.266h1.424a12.89 12.89 0 0 0 4.868 8.145c-.26.382-.505.78-.75 1.194a14.346 14.346 0 0 1-5.542-9.339ZM40.048 63.379a29.176 29.176 0 0 1-5.817.581c-1.868 0-3.69-.168-5.466-.505-1.102-1.485-1.96-3.368-2.51-5.511a24.959 24.959 0 0 0 7.976 1.301c2.908 0 5.694-.49 8.297-1.408-.551 2.158-1.393 4.056-2.48 5.541ZM42.145 44.32c.414-.307.796-.66 1.164-1.026.459.23.918.428 1.362.612a15.873 15.873 0 0 1-1.76 1.607 31.724 31.724 0 0 0-.766-1.194ZM43.906 47.473a16.79 16.79 0 0 0 2.985-2.817c.811.214 1.53.306 2.159.306a18.58 18.58 0 0 1-4.44 4.317 23.225 23.225 0 0 0-.704-1.806Z" class="b" />
        <path d="M45.161 51.147c5.557-3.583 9.247-9.829 9.247-16.932 0-4.332-1.363-8.359-3.705-11.635l1.913-2.173a22.81 22.81 0 0 1 4.608 13.823c0 8.497-4.607 15.906-11.45 19.887a32.802 32.802 0 0 0-.613-2.97Z" class="b" />
        <path d="M45.942 61.526c.076-.72.122-1.53.122-2.45a41.43 41.43 0 0 0-.122-2.77c7.103-3.812 12.14-10.977 12.982-19.381l3.98 4.562c-2.22 9.017-8.588 16.411-16.962 20.04ZM22.825 54.163s.016 0 .016.015c0-.015 0-.015-.016-.015Z" class="b" />
    </g>
    <defs>
        <clipPath id="a">
            <path fill="#aeb8c9" d="M0 0h255v68.522H0z" />
        </clipPath>
    </defs>
</svg>
