<svg xmlns="http://www.w3.org/2000/svg" xmlns:xlink="http://www.w3.org/1999/xlink" viewBox="0 0 426.93 195.43"><defs><style>.a{fill:#010101;}.b{fill:url(#a);}.c{fill:#fff;}</style><linearGradient id="a" x1="8.91" y1="-5.14" x2="59.59" y2="82.64" gradientUnits="userSpaceOnUse"><stop offset="0" stop-color="#00a652"/><stop offset="1" stop-color="#13c336"/></linearGradient></defs><title>tc-disrupt-winner</title><path d="M1.82,194.28V184c.64-.51,1.39-1.12,2.24-1.83L6.75,180l2.82-2.31,2.62-2.17q2.43-2,4.13-3.52a26.24,26.24,0,0,0,2.75-2.85,9,9,0,0,0,1.51-2.56A7.83,7.83,0,0,0,21,164q0-3.58-3.07-3.59a3.42,3.42,0,0,0-2.69,1.09A7,7,0,0,0,14,165.16L.86,164q.78-7.11,5.32-11.08t12.41-4q7.82,0,12,3.81a13.1,13.1,0,0,1,4.16,10.14,16.78,16.78,0,0,1-.54,4.42,15.62,15.62,0,0,1-1.54,3.68,21.24,21.24,0,0,1-2.4,3.3q-1.41,1.59-3.07,3.2c-1.33,1.23-2.57,2.35-3.75,3.36s-2.12,1.78-2.84,2.33H35.49l-1.15,11.2Z"/><path d="M38.56,172.33q0-12.35,4.32-17.92t12.9-5.57q8.76,0,12.8,5.67t4,17.44q0,12.35-4.32,17.92t-12.9,5.56q-8.76,0-12.8-5.66T38.56,172.33Zm14-.19c0,2.3,0,4.19.12,5.66a20.51,20.51,0,0,0,.45,3.49,3.31,3.31,0,0,0,.93,1.79,2.25,2.25,0,0,0,1.5.51,2.16,2.16,0,0,0,1.48-.51,3.68,3.68,0,0,0,.92-1.79,16.8,16.8,0,0,0,.48-3.49c.09-1.47.13-3.36.13-5.66s0-4.19-.13-5.67A16.69,16.69,0,0,0,58,163a3.72,3.72,0,0,0-.92-1.8,2.16,2.16,0,0,0-1.48-.51,2.25,2.25,0,0,0-1.5.51,3.34,3.34,0,0,0-.93,1.8,20.37,20.37,0,0,0-.45,3.48C52.62,168,52.58,169.83,52.58,172.14Z"/><path d="M87.9,165.42l-6.08,4.41-6.46-9.72,14.85-10.05h11.52v44.22H87.9Z"/><path d="M125.79,184.36a4.23,4.23,0,0,0,1.82-.38,3.2,3.2,0,0,0,1.35-1.31,7.74,7.74,0,0,0,.83-2.47,21.87,21.87,0,0,0,.29-3.9,11.57,11.57,0,0,1-3.1,1.6,14,14,0,0,1-4.52.64,15.55,15.55,0,0,1-5.25-.87,11.87,11.87,0,0,1-4.28-2.62,12.25,12.25,0,0,1-2.92-4.38,16.68,16.68,0,0,1-1.05-6.21,17,17,0,0,1,1.18-6.53,13.93,13.93,0,0,1,3.33-4.9,14.71,14.71,0,0,1,5.25-3.1,20.75,20.75,0,0,1,6.94-1.09,20.3,20.3,0,0,1,7.43,1.28,13.53,13.53,0,0,1,5.53,4,18.72,18.72,0,0,1,3.46,7,38.46,38.46,0,0,1,1.18,10.21,39.2,39.2,0,0,1-1.37,11.1,20.91,20.91,0,0,1-3.78,7.46,14.19,14.19,0,0,1-5.66,4.19,18.64,18.64,0,0,1-7,1.31q-7,0-11.2-3.68t-4.8-10.27h12.8A3.27,3.27,0,0,0,125.79,184.36Zm.13-24.89a3.85,3.85,0,0,0-2.88,1.18,5.11,5.11,0,0,0-1.15,3.68,5.35,5.35,0,0,0,.89,3.17,3.39,3.39,0,0,0,3,1.25,5.83,5.83,0,0,0,1.5-.2,3,3,0,0,0,1.31-.7,3.5,3.5,0,0,0,.93-1.38,5.77,5.77,0,0,0,.35-2.14,6.24,6.24,0,0,0-.92-3.46A3.33,3.33,0,0,0,125.92,159.47Z"/><path d="M203,176.87l4.74-28.28h14.91l-11.45,45.69H196l-5.06-25.6-5,25.6H170.78l-11.45-45.69h15.23l4.67,28.28,5.5-28h12.8Z"/><path d="M227.36,148.59h14.53v45.69H227.36Z"/><path d="M249.18,148.59h12.48l14.59,23.1v-23.1h13.57v45.69H277.47l-14.72-23.23v23.23H249.18Z"/><path d="M297.12,148.59H309.6l14.59,23.1v-23.1h13.57v45.69H325.4l-14.72-23.23v23.23H297.12Z"/><path d="M345.05,148.59h34v11.2H359.32v5.82h18.43v11.2H359.32v6.27h21l-1.08,11.2H345.05Z"/><path d="M423.58,163.56a16.4,16.4,0,0,1-1.76,7.87,14.37,14.37,0,0,1-5,5.32l9.47,17.53H411.48l-7.29-14.65h-5.12v14.65h-13.7V148.59H405a28.2,28.2,0,0,1,8.81,1.18,15.62,15.62,0,0,1,5.74,3.2,11.34,11.34,0,0,1,3.11,4.77A18,18,0,0,1,423.58,163.56Zm-24.51,5.51h4.83c2.16,0,3.7-.41,4.61-1.22a5.55,5.55,0,0,0,0-7.3c-.91-.81-2.45-1.21-4.61-1.21h-4.83Z"/><path class="a" d="M86,67.54V8.14s20.23-.72,30.09.44c14,1.64,22,10,23.31,24,.67,7,.22,14-3,20.5-4.65,9.36-12.81,13.7-22.75,14.32C104.55,68,95.37,67.54,86,67.54ZM102.08,54.1c3.06,0,5.88.14,8.69,0,5.73-.36,9.62-3.52,11.2-9a26.75,26.75,0,0,0,0-14.79c-1.11-3.91-3.45-6.84-7.52-7.95s-8.2-.59-12.35-.58Z"/><path class="a" d="M218.62,8c10,.32,19.82-.6,29.6.49,8.12.9,14.94,4.2,17,13,2.11,9,.21,16.86-8,22.54,4,7.79,8,15.59,12.05,23.59h-17L242.51,47.3H234V67.55H218.62ZM234,34.69h8.11a16.47,16.47,0,0,0,2-.1c4.13-.48,6.29-2.83,6.36-6.89.07-3.86-2-6.41-6-7A63.82,63.82,0,0,0,234,20.6Z"/><path class="a" d="M213.83,24.84,198.44,26.4c-.4-1-.52-1.38-.78-2a7.24,7.24,0,0,0-6.13-4.82,15,15,0,0,0-7.63.56,4.4,4.4,0,0,0-3.13,4.1,4.2,4.2,0,0,0,2.88,4.26c3.64,1.51,7.59,1.81,11.4,2.63a45.89,45.89,0,0,1,10,3.06c6.43,3,9.8,8.09,9.91,15.17.11,7.42-2.59,13.56-9.58,16.72a36.63,36.63,0,0,1-31,.06c-7.4-3.29-10.13-9.91-10.74-17.8h15.83c2.47,7,7.17,9.47,14.58,7.68,2.92-.7,4.63-2.49,4.8-5s-1.27-4.51-4.36-5.28c-4-1-8.14-1.7-12.21-2.55a34.77,34.77,0,0,1-8.47-2.9c-6.16-3.07-9-8.09-9-14.9,0-7,2.67-12.46,9.09-15.7s13.29-3.44,20.25-2.77a26,26,0,0,1,10.42,3.21C210.25,13.27,213,18.28,213.83,24.84Z"/><path class="a" d="M270.68,8.17h15.63a4.38,4.38,0,0,1,.26,2.48q0,16.13,0,32.25a21.87,21.87,0,0,0,.92,7.15c1.26,3.72,3.9,5.43,8.31,5.42s7-1.72,8.26-5.47a22.13,22.13,0,0,0,.91-7.15c0-11.49,0-23,0-34.61h15.81c.51.49.25,1.2.25,1.83q0,16.62,0,33.25a38.19,38.19,0,0,1-1,9.16c-2.15,8.66-7.51,14.11-16.28,16a38.68,38.68,0,0,1-16.14,0c-9.35-2-15.06-8.25-16.55-18a19.69,19.69,0,0,1-.36-2.72C270.67,34.61,270.68,21.47,270.68,8.17Z"/><path class="a" d="M342.68,48.16V67.58H327.27V8.1c7.22,0,14.44,0,21.65,0a41.75,41.75,0,0,1,9.91.94c9,2.13,13.33,7,14.42,16.15,1.57,13.19-5.63,22-18.84,22.94C350.61,48.38,346.77,48.16,342.68,48.16Zm0-12.6c3.77-.08,7.33.37,10.85-.44,3.09-.72,4.66-2.81,4.89-6.36.25-3.72-1.07-6.28-4-7.21-3.86-1.24-7.81-.6-11.76-.68Z"/><path class="a" d="M409.88,67.63H393.74V21.81h-17V8.21h50.23V21.68H409.88Z"/><path class="a" d="M160.21,67.63H144.35V8.22h15.86Z"/><rect class="b" width="68.5" height="77.49"/><polygon class="c" points="34.25 8.24 34.25 16.79 25.7 16.79 25.7 33.88 17.15 33.88 17.15 16.79 8.61 16.79 8.61 8.24 34.25 8.24"/><rect class="c" x="42.8" y="8.24" width="17.09" height="8.55"/><polygon class="c" points="59.89 25.34 59.89 33.88 34.25 33.88 34.25 16.79 42.8 16.79 42.8 25.34 59.89 25.34"/><path d="M4.52,118.1a6,6,0,0,0,2.26,4.13,9.35,9.35,0,0,0,5.38,1.27,9.38,9.38,0,0,0,3-.4A5.32,5.32,0,0,0,17.06,122a3.81,3.81,0,0,0,1-1.56,5.88,5.88,0,0,0,.3-1.88,6,6,0,0,0-.19-1.54,3.11,3.11,0,0,0-.74-1.35,4.75,4.75,0,0,0-1.52-1.06,9.65,9.65,0,0,0-2.49-.73l-3.42-.6a20.57,20.57,0,0,1-3.57-.92,8.78,8.78,0,0,1-2.64-1.46,5.49,5.49,0,0,1-1.63-2.22,8.38,8.38,0,0,1-.56-3.23,6.65,6.65,0,0,1,.78-3.27,7.22,7.22,0,0,1,2.11-2.36,9.22,9.22,0,0,1,3.16-1.4,15.91,15.91,0,0,1,4-.46,14.74,14.74,0,0,1,4.5.59,8.34,8.34,0,0,1,2.95,1.58,6.8,6.8,0,0,1,1.73,2.26,13.32,13.32,0,0,1,.89,2.6l-3.27.65a9.13,9.13,0,0,0-.78-2,4.41,4.41,0,0,0-1.25-1.49,5.5,5.5,0,0,0-1.92-.89,11.07,11.07,0,0,0-2.77-.3,11.92,11.92,0,0,0-3.12.34,5.84,5.84,0,0,0-2,.93,3.35,3.35,0,0,0-1.08,1.41,4.73,4.73,0,0,0-.32,1.72,5.31,5.31,0,0,0,.25,1.73,3.06,3.06,0,0,0,.83,1.3,4.76,4.76,0,0,0,1.54.91,13.48,13.48,0,0,0,2.36.62l3.8.69a12.34,12.34,0,0,1,6.19,2.64,7,7,0,0,1,2,5.41,7.48,7.48,0,0,1-.63,3.06,7,7,0,0,1-1.86,2.49,8.91,8.91,0,0,1-3.1,1.67,14,14,0,0,1-4.37.61A18.77,18.77,0,0,1,7.81,126a9.86,9.86,0,0,1-3.4-1.5,7.74,7.74,0,0,1-2.32-2.63A9.46,9.46,0,0,1,1,118.1Z"/><path d="M34.12,101.8h-9V98.69H46.63v3.11h-9v24H34.12Z"/><path d="M55.37,98.69h3.68l10.53,27.13h-3.8l-2.85-7.56H51.3l-2.85,7.56H44.8Zm6.5,16.53-4.79-12.58-4.71,12.58Z"/><path d="M73.87,98.69h8.89a15.1,15.1,0,0,1,5,.68,8.32,8.32,0,0,1,3.06,1.77,5.68,5.68,0,0,1,1.54,2.45,9.4,9.4,0,0,1,.42,2.77,8.53,8.53,0,0,1-1.08,4.41,7.12,7.12,0,0,1-3.56,2.85l5.7,12.2H89.91l-5.13-11.36a8.72,8.72,0,0,1-1.07.09l-1,0H77.33v11.25H73.87Zm9.24,12.88a10.51,10.51,0,0,0,3-.36,4.61,4.61,0,0,0,1.86-1,3.51,3.51,0,0,0,1-1.61,7.86,7.86,0,0,0,.27-2.13,6,6,0,0,0-.31-2,3.43,3.43,0,0,0-1-1.5,5,5,0,0,0-2-1,13.35,13.35,0,0,0-3.19-.32H77.33v9.92Z"/><path d="M104.84,101.8h-9V98.69h21.47v3.11h-9v24h-3.54Z"/><path d="M121.6,98.69h3.5v16.37q0,4.23,1.57,6.31c1,1.4,2.8,2.09,5.23,2.09s4.19-.7,5.2-2.11,1.52-3.5,1.52-6.29V98.69h3.5v16.37a16.75,16.75,0,0,1-.7,5.19,9.31,9.31,0,0,1-2,3.55,7.64,7.64,0,0,1-3.23,2.06,13.46,13.46,0,0,1-4.31.64c-3.27,0-5.79-.91-7.58-2.73s-2.68-4.78-2.68-8.86Z"/><path d="M148.69,98.69h9.09a16,16,0,0,1,4.95.64,7.77,7.77,0,0,1,3.08,1.75,5.92,5.92,0,0,1,1.56,2.57,10.73,10.73,0,0,1,.44,3.09,11.39,11.39,0,0,1-.46,3.27,6.49,6.49,0,0,1-1.59,2.74,8,8,0,0,1-3.08,1.86,15.1,15.1,0,0,1-4.9.68h-5.63v10.53h-3.46Zm9.05,13.64A12,12,0,0,0,161,112a4.71,4.71,0,0,0,2-1.1,4,4,0,0,0,1-1.73,8.32,8.32,0,0,0,.28-2.26,7.78,7.78,0,0,0-.3-2.28,3.46,3.46,0,0,0-1.07-1.64,5,5,0,0,0-2-1,13.65,13.65,0,0,0-3.21-.32h-5.55v10.68Z"/><path d="M182.7,98.69h9a17,17,0,0,1,4.75.55,7.79,7.79,0,0,1,2.94,1.48,4.73,4.73,0,0,1,1.5,2.2,8.65,8.65,0,0,1,.42,2.72,6.53,6.53,0,0,1-.85,3.34,6.35,6.35,0,0,1-3,2.47,8.93,8.93,0,0,1,2.27,1.24,6.59,6.59,0,0,1,1.44,1.56A5.44,5.44,0,0,1,202,116a8.69,8.69,0,0,1,.21,1.92,9.12,9.12,0,0,1-.51,3.1,6.38,6.38,0,0,1-1.66,2.49,7.86,7.86,0,0,1-3,1.67,14.81,14.81,0,0,1-4.6.61H182.7Zm9.46,11.47c2.06,0,3.53-.37,4.41-1.12a4,4,0,0,0,1.33-3.29,3.6,3.6,0,0,0-1.42-3.19q-1.42-1-4.89-1h-5.47v8.59Zm.12,12.77a11.81,11.81,0,0,0,3.1-.34,5.12,5.12,0,0,0,2-1,3.26,3.26,0,0,0,1-1.52,6.69,6.69,0,0,0,.28-2,4.72,4.72,0,0,0-1.4-3.67c-.94-.85-2.51-1.27-4.72-1.27h-6.42v9.8Z"/><path d="M215.19,98.69h3.69l10.53,27.13h-3.8l-2.85-7.56H211.13l-2.85,7.56h-3.65Zm6.5,16.53-4.79-12.58-4.71,12.58Z"/><path d="M236.55,101.8h-9V98.69h21.47v3.11h-9v24h-3.53Z"/><path d="M261.4,101.8h-9V98.69H273.9v3.11h-9v24H261.4Z"/><path d="M278.46,98.69H282v24H296l-.53,3.12h-17Z"/><path d="M300.69,98.69h17.56v3.07H304.19v8.52h13.3v3.11h-13.3v9.35H319l-.57,3.08H300.69Z"/><path d="M324.14,98.69H341v3.07H327.63v8.9h12.51v3.15H327.63v12h-3.49Z"/><path d="M346.44,98.69h3.5v27.13h-3.5Z"/><path d="M356.82,98.69h17.55v3.07H360.31v8.52h13.3v3.11h-13.3v9.35H375.1l-.57,3.08H356.82Z"/><path d="M380.26,98.69h3.5v24h14.06l-.53,3.12h-17Z"/><path d="M402.49,98.69H412a16.08,16.08,0,0,1,5.3.81,10.13,10.13,0,0,1,4,2.49,11.49,11.49,0,0,1,2.49,4.18,18,18,0,0,1,.87,5.89,17.77,17.77,0,0,1-.93,6,10.83,10.83,0,0,1-6.94,6.87,16.78,16.78,0,0,1-5.62.88h-8.63Zm8.78,24.09c3.37,0,5.83-1,7.37-2.83s2.32-4.49,2.32-7.81a17.35,17.35,0,0,0-.51-4.41,8.79,8.79,0,0,0-1.6-3.29,6.82,6.82,0,0,0-2.79-2,10.66,10.66,0,0,0-4.07-.7h-6v21.09Z"/></svg>